<svg xmlns="http://www.w3.org/2000/svg" width="30" height="30" viewBox="0 0 30 30"><g><g><path d="M13.187 12.847v-1.689c0-1.212.266-2.092.814-2.69.6-.651 1.53-.968 2.845-.968h2.253v2.812H17.69c-1.071 0-1.124.408-1.124 1.127l-.004 1.407h2.552l-.299 2.813h-2.253v8.16h-3.376v-8.16H11.5v-2.812zm7.652 15.974a14.95 14.95 0 0 0 4.768-3.214A14.95 14.95 0 0 0 30 15a14.95 14.95 0 0 0-4.393-10.607A14.95 14.95 0 0 0 15 0 14.95 14.95 0 0 0 4.393 4.393 14.95 14.95 0 0 0 0 15a14.95 14.95 0 0 0 4.393 10.606A14.95 14.95 0 0 0 15 30c2.025 0 3.99-.397 5.839-1.179z"/></g></g></svg>