<svg width="32" height="27" viewBox="0 0 32 27" fill="none" xmlns="http://www.w3.org/2000/svg">
<path d="M21.5517 2.47632L15.6807 4.25322L13.9949 5.30604L10.2151 2.47632L4.81632 3.00344L1.37363 6.29367C1.37363 6.29367 1.17017 9.78229 1.37363 10.2414C1.57708 10.7005 4.81632 15.3723 4.81632 15.3723L11.6988 21.9528L13.9949 23.8614H15.6807L27.1539 12.2153L28.0302 8.13434L27.1539 5.30604C27.1539 5.30604 25.9375 3.59574 25.6687 3.52914C25.3998 3.46254 23.2389 3.00344 23.2389 3.00344L21.5517 2.47632Z" fill="#FA4248"/>
<path d="M28.7375 2.53531C27.036 0.833862 24.8305 0.0146484 22.5619 0.0146484C20.3563 0.0146484 18.0877 0.833862 16.3862 2.53531L15.567 3.35452L14.8108 2.53531C13.1094 0.833862 10.9038 0.0146484 8.63522 0.0146484C6.42965 0.0146484 4.16105 0.833862 2.45961 2.53531C-0.943279 5.9382 -0.754229 11.6097 2.64866 15.0126L3.27882 15.6427L13.8656 26.2295C14.8108 27.1747 16.3862 27.1747 17.3315 26.2295L27.9183 15.6427L28.5484 15.0126C31.9513 11.6727 32.0773 5.9382 28.7375 2.53531ZM28.1073 9.08902C28.0443 10.4754 27.3511 11.7987 26.3428 12.807L25.6497 13.5002L15.567 23.5828L5.4844 13.5002L4.79122 12.807C3.78296 11.7987 3.15279 10.5384 3.02676 9.08902C2.90073 7.45059 3.53089 5.9382 4.66519 4.8039C5.79948 3.6696 7.31188 3.10246 8.95031 3.16547C10.3367 3.22849 11.66 3.92167 12.6683 4.92993L13.3615 5.62311L14.5588 6.82043L16.1972 8.45886C16.8274 9.08902 17.8986 9.08902 18.5288 8.45886C19.159 7.82869 19.159 6.75741 18.5288 6.12725L17.8986 5.49708L18.5918 4.8039C19.7261 3.73262 21.1125 3.16547 22.5619 3.16547C24.0112 3.16547 25.4606 3.73262 26.4689 4.8039C27.6032 5.9382 28.2333 7.45059 28.1073 9.08902Z" fill="#FA4248"/>
<path d="M10.5886 14.8235L7.7529 11.9878C7.12273 11.3576 7.12273 10.3493 7.7529 9.78219C8.38306 9.15203 9.39132 9.15203 9.95847 9.78219L12.7942 12.6179C13.4244 13.2481 13.4244 14.2564 12.7942 14.8235C12.164 15.4537 11.1558 15.4537 10.5886 14.8235Z" fill="white"/>
</svg>
