<svg width="22" height="20" viewBox="0 0 22 20" fill="none" xmlns="http://www.w3.org/2000/svg">
<path d="M20.2815 1.7792C19.0807 0.578404 17.5241 0.000244141 15.923 0.000244141C14.3664 0.000244141 12.7654 0.578404 11.5646 1.7792L10.9864 2.35736L10.4527 1.7792C9.25195 0.578404 7.69537 0.000244141 6.09431 0.000244141C4.53772 0.000244141 2.93666 0.578404 1.73587 1.7792C-0.665719 4.18079 -0.532297 8.18343 1.86929 10.585L2.31403 11.0298L9.78564 18.5014C10.4527 19.1685 11.5646 19.1685 12.2317 18.5014L19.7033 11.0298L20.148 10.585C22.5496 8.22791 22.6386 4.18079 20.2815 1.7792ZM19.8367 6.40448C19.7923 7.3829 19.303 8.31686 18.5915 9.02844L18.1023 9.51765L10.9864 16.6335L3.87062 9.51765L3.3814 9.02844C2.66982 8.31686 2.22508 7.42738 2.13614 6.40448C2.04719 5.24816 2.49193 4.18079 3.29246 3.38026C4.09299 2.57973 5.16036 2.17946 6.31668 2.22394C7.2951 2.26841 8.22906 2.75762 8.94064 3.46921L9.42985 3.95842L10.2749 4.80342L11.4312 5.95974C11.8759 6.40448 12.632 6.40448 13.0767 5.95974C13.5214 5.515 13.5214 4.75895 13.0767 4.31421L12.632 3.86947L13.1212 3.38026C13.9217 2.6242 14.9001 2.22394 15.923 2.22394C16.9459 2.22394 17.9688 2.6242 18.6804 3.38026C19.4809 4.18079 19.9257 5.24816 19.8367 6.40448Z" fill="black"/>
<path d="M7.47257 10.4515L5.47125 8.4502C5.02651 8.00546 5.02651 7.29388 5.47125 6.89361C5.91599 6.44887 6.62757 6.44887 7.02783 6.89361L9.02916 8.89493C9.4739 9.33967 9.4739 10.0513 9.02916 10.4515C8.58442 10.8963 7.87283 10.8963 7.47257 10.4515Z" fill="black"/>
</svg>
