<svg xmlns="http://www.w3.org/2000/svg" width="30" height="30" viewBox="0 0 30 30"><g><g><g><path d="M15 7c2.151 0 2.436.009 3.297.048.773.036 1.373.15 1.943.372.559.217.996.501 1.417.922.42.421.705.858.923 1.418.221.57.336 1.17.372 1.941.039.874.048 1.161.048 3.3 0 2.137-.009 2.424-.048 3.297-.036.772-.151 1.37-.372 1.942-.218.56-.502.996-.923 1.417a3.925 3.925 0 0 1-1.416.924c-.572.221-1.17.336-1.943.37-.86.04-1.146.05-3.298.05-2.153 0-2.438-.01-3.299-.05-.771-.034-1.37-.149-1.942-.37a3.927 3.927 0 0 1-1.417-.924 3.931 3.931 0 0 1-.922-1.417c-.221-.571-.336-1.17-.372-1.942C7.01 17.425 7 17.138 7 15s.009-2.426.048-3.299c.035-.773.15-1.371.372-1.942.218-.559.502-.996.923-1.417a3.914 3.914 0 0 1 1.418-.922c.568-.221 1.167-.336 1.941-.372.823-.037 1.115-.047 2.951-.047L15 7zm5.839 21.821a14.95 14.95 0 0 0 4.768-3.214A14.95 14.95 0 0 0 30 15a14.95 14.95 0 0 0-4.393-10.607A14.95 14.95 0 0 0 15 0 14.95 14.95 0 0 0 4.393 4.393 14.95 14.95 0 0 0 0 15a14.95 14.95 0 0 0 4.393 10.606A14.95 14.95 0 0 0 15 30c2.025 0 3.99-.397 5.839-1.179z"/></g><g><path d="M19.48 9.875a.972.972 0 0 1 0 1.942.97.97 0 0 1-.002-1.94l.002-.002zm-.164 5.288a4.157 4.157 0 0 1-4.153 4.152 4.157 4.157 0 0 1-4.152-4.152 4.157 4.157 0 0 1 4.152-4.153 4.157 4.157 0 0 1 4.153 4.153zm-4.153 6.626c2.153 0 2.41-.009 3.268-.048.792-.036 1.218-.168 1.502-.279a2.49 2.49 0 0 0 .929-.604c.284-.284.46-.553.605-.93.11-.285.243-.714.279-1.5.038-.849.046-1.104.046-3.267s-.008-2.418-.046-3.267c-.037-.787-.168-1.216-.279-1.501a2.517 2.517 0 0 0-.605-.93 2.498 2.498 0 0 0-.93-.605c-.284-.11-.71-.242-1.501-.279-.838-.038-1.091-.046-3.268-.046h-.514c-.066 0-.141 0-.21-.002-1.505.002-1.789.012-2.544.046-.789.036-1.217.168-1.501.278a2.517 2.517 0 0 0-.93.606 2.494 2.494 0 0 0-.605.93c-.11.285-.243.714-.279 1.501-.038.848-.046 1.103-.046 3.267 0 2.164.008 2.42.046 3.268.036.788.168 1.216.28 1.501.146.378.321.647.604.93.283.282.552.457.93.604.285.111.714.243 1.501.28.86.038 1.116.047 3.268.047z"/></g><g><path d="M15.163 12.467a2.696 2.696 0 1 1 0 5.391 2.696 2.696 0 0 1 0-5.39z"/></g></g></g></svg>