<svg width="170" height="53" viewBox="0 0 170 53" fill="none" xmlns="http://www.w3.org/2000/svg">
<path d="M3.3112 0.464296C4.52525 0.30768 5.75856 0.371095 6.98424 0.371095C21.2522 0.385988 35.5242 0.344972 49.7922 0.393434C51.9544 0.206972 54.0202 1.94892 54.0164 4.07129C54.0742 14.5341 54.0241 24.9969 54.0395 35.4597C53.9585 40.1819 54.2245 44.9116 53.8584 49.6227C46.3659 42.0208 38.4919 34.7621 30.8876 27.2573C32.1286 25.9294 33.6241 24.8253 34.7264 23.3743C35.6437 23.4153 36.5687 23.4452 37.4859 23.3631C37.9793 22.6357 38.8542 21.6473 38.0872 20.7968C35.8672 18.3015 33.2541 16.1678 30.9647 13.7396C30.0937 13.0793 29.3691 12.2774 28.6407 11.4829C27.7542 10.4012 25.673 9.93494 24.879 11.3449C24.2122 12.0424 24.8636 13.001 24.8867 13.8067C23.2256 15.1047 21.8381 16.6826 20.3003 18.1112C18.0456 20.3566 15.6406 22.4641 13.5016 24.8141C12.3993 24.8514 11.2237 24.6537 10.2371 25.2468C10.1909 26.1868 10.1832 27.1304 10.2333 28.0741C13.6789 31.3118 17.0513 34.6241 20.4506 37.9066C21.2638 37.873 22.2852 38.1602 22.8518 37.403C23.8615 36.7241 23.2025 35.5007 23.3836 34.5533C24.5206 33.2626 25.935 32.2295 27.0181 30.8904C27.1337 30.868 27.3688 30.8269 27.4844 30.8046C28.0433 31.4238 28.6445 32.0094 29.3036 32.5316C31.011 34.3518 32.938 35.9557 34.6724 37.7499C39.598 42.4758 44.5814 47.1533 49.3721 52.0024C49.7306 52.1031 50.0929 52.2076 50.4552 52.3158C49.719 52.4612 48.9752 52.6141 48.2198 52.6365C33.705 52.6365 19.1865 52.6365 4.66789 52.6403C3.33436 52.6664 1.87358 52.3941 0.998672 51.331C-0.0534524 50.2792 0.0544578 48.7274 0.023635 47.3809C0.131515 34.5793 -0.0149392 21.7816 0.0814353 8.98377C0.0737144 7.21576 -0.107438 5.44391 0.0968467 3.68335C0.216323 2.05707 1.65007 0.661989 3.3112 0.464296Z" fill="#6C98A2"/>
<path d="M74.8439 28.3553C75.2139 27.7116 76.0002 28.0277 76.6014 27.9737C76.5706 33.2153 76.5976 38.4609 76.5899 43.7024C77.3954 43.7064 78.2047 43.7179 79.0141 43.7256C79.0912 45.1324 79.0951 46.5469 79.0796 47.9574C78.2472 47.9922 77.4186 48.0152 76.5938 48.0423C76.5938 49.3141 76.5938 50.5821 76.5899 51.8579C74.8979 51.8772 73.206 51.8848 71.5179 51.8116C71.5255 50.5474 71.5179 49.2872 71.5294 48.0268C67.8911 47.9729 64.2528 48.0924 60.6221 47.9459C60.7339 46.9939 60.3253 45.8338 61.0692 45.0707C65.6827 39.5169 70.242 33.9168 74.8439 28.3553ZM67.444 43.6678C68.8044 43.7295 70.165 43.7295 71.5255 43.7064C71.514 41.9604 71.5101 40.2145 71.5255 38.4724C70.2267 40.253 68.816 41.9449 67.444 43.6678Z" fill="#6C98A2"/>
<path d="M68.8889 1.08421C73.2402 0.120705 78.2391 1.18824 81.2762 4.61076C80.0158 5.76707 78.798 6.96565 77.553 8.13728C76.4161 7.04664 75.0209 6.26035 73.4792 5.91731C72.2112 5.6822 70.7621 5.64365 69.6983 6.48002C68.8735 7.13523 69.0508 8.56513 69.9797 9.05076C72.9513 10.7119 76.6127 11.0279 79.2836 13.2633C81.5922 15.121 81.9776 18.5551 80.9255 21.1913C79.8925 23.6696 77.4529 25.2921 74.8975 25.878C71.5675 26.6256 67.9061 26.2518 64.9577 24.4597C63.3583 23.5538 62.1557 22.1317 60.9609 20.7673C62.36 19.6304 63.7206 18.4472 65.1081 17.2986C66.376 19.0908 68.1412 20.7058 70.3728 21.095C72.0301 21.4803 74.2038 21.0102 74.94 19.3066C75.2059 18.0695 74.0535 17.1945 73.063 16.7591C70.3381 15.5488 67.0659 15.2213 64.923 12.9627C63.0037 11.0665 62.8264 8.06031 63.5163 5.58588C64.2909 3.22327 66.5147 1.59296 68.8889 1.08421Z" fill="black"/>
<path d="M84.3481 1.56205C87.4661 1.53883 90.5881 1.55433 93.706 1.54664C96.4579 1.54283 99.3216 2.39839 101.33 4.34858C103.06 5.99812 103.908 8.46867 103.65 10.839C103.507 13.7411 101.449 16.2695 98.8436 17.4103C96.3962 18.6205 93.6212 18.5627 90.9658 18.5087C90.9735 20.8212 90.9695 23.1337 90.9658 25.4462C88.7612 25.4462 86.5527 25.4539 84.3481 25.4347C84.352 17.4758 84.352 9.51698 84.3481 1.56205ZM90.9695 6.55317C90.9695 8.86952 90.9695 11.1858 90.9695 13.5023C91.8214 13.4983 92.6731 13.4906 93.5287 13.4791C94.4807 13.1746 95.5984 12.9974 96.2227 12.1185C97.3366 10.7928 97.1786 8.5612 95.768 7.50517C94.4267 6.41441 92.5883 6.54161 90.9695 6.55317Z" fill="black"/>
<path d="M106.32 1.55433C111.909 1.54667 117.501 1.55054 123.094 1.55054C123.094 3.35041 123.094 5.14649 123.094 6.94635C119.71 6.94635 116.326 6.94635 112.942 6.94635C112.934 8.48801 112.934 10.0297 112.946 11.5713C115.859 11.5713 118.773 11.5636 121.687 11.5752C121.687 13.2401 121.683 14.909 121.687 16.5779C118.769 16.5855 115.856 16.5779 112.938 16.5818C112.934 17.738 112.934 18.8942 112.942 20.0505C116.422 20.0505 119.902 20.0466 123.387 20.0543C123.379 21.8504 123.379 23.6464 123.387 25.4424C117.698 25.4463 112.009 25.4501 106.32 25.4424C106.32 17.4797 106.32 9.51706 106.32 1.55433Z" fill="black"/>
<path d="M127.129 1.55051C132.721 1.55051 138.318 1.55432 143.91 1.54663C143.894 3.34656 143.894 5.14639 143.91 6.95013C140.522 6.94244 137.138 6.95013 133.75 6.94244C133.75 8.4841 133.743 10.0297 133.758 11.5752C136.672 11.5674 139.585 11.5636 142.499 11.5752C142.495 13.244 142.499 14.909 142.503 16.5779C139.585 16.5855 136.668 16.5779 133.75 16.5817C133.747 17.7379 133.747 18.898 133.75 20.0543C137.231 20.0466 140.707 20.0504 144.187 20.0543C144.187 21.8503 144.187 23.6464 144.187 25.4424C138.499 25.4539 132.814 25.4424 127.129 25.4462C127.133 17.4797 127.133 9.51709 127.129 1.55051Z" fill="black"/>
<path d="M147.945 1.55432C150.932 1.54282 153.919 1.55432 156.91 1.54663C160.625 1.57748 164.468 2.90717 167.031 5.67825C170.924 9.80612 170.993 16.8977 167.212 21.118C164.657 24.024 160.714 25.4192 156.91 25.4501C153.923 25.4424 150.932 25.4501 147.945 25.4424C147.945 17.4797 147.945 9.51709 147.945 1.55432ZM154.563 6.94244C154.563 11.313 154.563 15.6837 154.563 20.0504C156.71 20.1545 159.049 19.9772 160.818 18.6128C164.098 16.2927 164.129 10.7195 160.853 8.3801C159.076 7.00031 156.717 6.86154 154.563 6.94244Z" fill="black"/>
<path d="M82.4209 27.9463C88.0133 27.9463 93.6056 27.9424 99.1979 27.9463C99.2018 29.7461 99.1941 31.5422 99.1979 33.3421C95.8102 33.3421 92.4263 33.3421 89.0423 33.3421C89.0385 34.8838 89.0385 36.4216 89.0462 37.9671C91.9638 37.9671 94.8775 37.9671 97.7951 37.971C97.7874 39.6359 97.7913 41.3047 97.7913 42.9736C94.8736 42.989 91.9598 42.9698 89.0462 42.9776C89.0385 44.1338 89.0385 45.2861 89.0501 46.4461C92.5265 46.4424 96.0068 46.4461 99.4832 46.4424C99.4871 48.2422 99.4793 50.0422 99.4832 51.8421C93.7944 51.8421 88.1096 51.8421 82.4248 51.8421C82.4209 43.8755 82.4325 35.9089 82.4209 27.9463Z" fill="black"/>
<path d="M101.657 27.9655C103.938 27.9308 106.224 27.9424 108.513 27.954C110.236 32.2437 111.994 36.5218 113.77 40.7921C115.482 36.5024 117.281 32.2513 118.977 27.954C121.278 27.9308 123.575 27.9578 125.876 27.9424C121.999 36.0708 118.118 44.1992 114.21 52.3122C113.986 52.9557 113.211 52.5434 113.158 52.0193C109.323 44.0026 105.472 35.9899 101.657 27.9655Z" fill="black"/>
<path d="M127.522 27.9463C133.11 27.9463 138.699 27.9424 144.288 27.9463C144.291 29.7461 144.288 31.5422 144.291 33.3421C140.907 33.3421 137.52 33.3421 134.136 33.3421C134.136 34.8838 134.136 36.4255 134.139 37.971C137.053 37.9594 139.967 37.971 142.884 37.9671C142.884 39.6359 142.884 41.3047 142.888 42.9736C139.971 42.9814 137.053 42.9736 134.132 42.9776C134.139 44.1338 134.136 45.2937 134.136 46.4539C137.616 46.4385 141.096 46.4461 144.576 46.4461C144.576 48.2422 144.576 50.0422 144.576 51.8421C138.888 51.8421 133.203 51.8421 127.518 51.8421C127.522 43.8755 127.51 35.9089 127.522 27.9463Z" fill="black"/>
<path d="M148.331 27.9501C151.445 27.9347 154.563 27.9501 157.677 27.9424C160.594 27.9385 163.659 28.9021 165.659 31.1144C167.254 32.8449 167.929 35.3115 167.59 37.6279C167.274 40.1562 165.566 42.3685 163.346 43.5479C164.934 46.3768 166.769 49.0593 168.438 51.8419C165.994 51.8382 163.551 51.8458 161.107 51.8382C159.781 49.5449 158.405 47.2786 157.16 44.9468C156.42 44.916 155.684 44.9006 154.952 44.893C154.944 47.2092 154.948 49.5257 154.952 51.8419C152.744 51.8419 150.535 51.8419 148.331 51.8419C148.331 43.8755 148.331 35.9127 148.331 27.9501ZM154.952 32.9566C154.948 35.2691 154.948 37.5816 154.952 39.898C155.8 39.8941 156.648 39.8903 157.503 39.8787C158.363 39.5858 159.353 39.4548 159.997 38.7456C161.319 37.4737 161.254 35.034 159.762 33.9202C158.432 32.7909 156.578 32.9451 154.952 32.9566Z" fill="black"/>
</svg>
