<svg width="196" height="63" viewBox="0 0 196 63" fill="none" xmlns="http://www.w3.org/2000/svg">
<path d="M4.34807 0.126095C5.74394 -0.0600009 7.16194 0.0153164 8.57115 0.0153164C24.9759 0.0330777 41.3851 -0.0156894 57.7899 0.0419278C60.2759 -0.17963 62.6511 1.88983 62.6466 4.41125C62.7131 16.8411 62.6555 29.271 62.6732 41.7009C62.5802 47.3109 62.886 52.9299 62.4649 58.5267C53.8505 49.4955 44.7973 40.8722 36.0542 31.9564C37.4811 30.3788 39.2005 29.0671 40.4678 27.3434C41.5225 27.3921 42.5861 27.4275 43.6406 27.3301C44.2079 26.4659 45.2138 25.2917 44.332 24.2813C41.7795 21.3168 38.7751 18.782 36.1429 15.8973C35.1414 15.1129 34.3083 14.1602 33.4708 13.2163C32.4516 11.9312 30.0586 11.3773 29.1458 13.0524C28.3792 13.881 29.1281 15.0198 29.1546 15.977C27.2448 17.5191 25.6495 19.3936 23.8814 21.0908C21.289 23.7584 18.5239 26.2621 16.0645 29.0538C14.7972 29.0982 13.4456 28.8633 12.3112 29.5679C12.258 30.6846 12.2491 31.8057 12.3067 32.9268C16.2684 36.7732 20.1458 40.7082 24.0542 44.6078C24.9892 44.5679 26.1635 44.9091 26.8149 44.0096C27.9759 43.2031 27.2182 41.7496 27.4264 40.6241C28.7337 39.0908 30.36 37.8634 31.6052 36.2725C31.7381 36.2459 32.0085 36.1971 32.1413 36.1706C32.7839 36.9062 33.4752 37.6019 34.233 38.2223C36.1961 40.3848 38.4117 42.2902 40.4058 44.4217C46.069 50.0362 51.7987 55.5931 57.3069 61.3538C57.719 61.4735 58.1356 61.5976 58.5521 61.7261C57.7057 61.8989 56.8505 62.0806 55.9819 62.1071C39.2935 62.1071 22.6007 62.1071 5.90794 62.1116C4.37471 62.1426 2.69517 61.8191 1.68925 60.5562C0.479535 59.3066 0.603619 57.4631 0.568189 55.8633C0.692212 40.6551 0.523847 25.4512 0.634625 10.2473C0.625775 8.14685 0.417493 6.04193 0.652356 3.95038C0.789716 2.01831 2.43818 0.360959 4.34807 0.126095Z" fill="#6C98A2"/>
<path d="M86.5934 34.1897C87.0188 33.4497 87.9228 33.8131 88.6142 33.7511C88.5787 39.7776 88.6097 45.8088 88.6009 51.8352C89.527 51.8398 90.4576 51.8531 91.3882 51.8619C91.4768 53.4794 91.4812 55.1056 91.4635 56.7275C90.5063 56.7674 89.5536 56.7939 88.6053 56.825C88.6053 58.2873 88.6053 59.7452 88.6009 61.212C86.6555 61.2342 84.7102 61.243 82.7693 61.1588C82.7781 59.7053 82.7693 58.2564 82.7826 56.8072C78.5994 56.7452 74.4162 56.8827 70.2419 56.7142C70.3703 55.6196 69.9006 54.2859 70.7559 53.4084C76.0602 47.0229 81.3024 40.5842 86.5934 34.1897ZM78.0853 51.7954C79.6495 51.8663 81.2139 51.8663 82.7781 51.8398C82.7648 49.8323 82.7604 47.8249 82.7781 45.822C81.2848 47.8693 79.6628 49.8146 78.0853 51.7954Z" fill="#6C98A2"/>
<path d="M79.7466 0.834618C84.7495 -0.27317 90.4971 0.954247 93.9889 4.88931C92.5399 6.21877 91.1396 7.59682 89.7082 8.94393C88.4011 7.68996 86.7969 6.78591 85.0243 6.3915C83.5665 6.12118 81.9003 6.07687 80.6772 7.03848C79.7289 7.79183 79.9327 9.43587 81.0007 9.99422C84.4173 11.9041 88.627 12.2675 91.6979 14.8377C94.3523 16.9735 94.7954 20.9219 93.5857 23.9528C92.3981 26.8023 89.593 28.6678 86.655 29.3414C82.8264 30.201 78.6166 29.7712 75.2267 27.7107C73.3877 26.6692 72.0051 25.0341 70.6313 23.4654C72.2399 22.1582 73.8043 20.7978 75.3995 19.4772C76.8574 21.5378 78.8869 23.3946 81.4527 23.8421C83.3582 24.2852 85.8574 23.7447 86.7039 21.786C87.0096 20.3635 85.6846 19.3576 84.5458 18.857C81.4128 17.4654 77.6506 17.0888 75.1868 14.492C72.98 12.3118 72.7761 8.85543 73.5694 6.01046C74.46 3.29403 77.0168 1.41958 79.7466 0.834618Z" fill="white"/>
<path d="M97.5205 1.38405C101.105 1.35738 104.695 1.3752 108.28 1.36635C111.444 1.36195 114.736 2.34566 117.045 4.58791C119.035 6.48445 120.01 9.32497 119.713 12.0503C119.549 15.387 117.182 18.294 114.187 19.6057C111.373 20.9971 108.182 20.9307 105.129 20.8686C105.138 23.5274 105.133 26.1862 105.129 28.845C102.594 28.845 100.055 28.8538 97.5205 28.8317C97.5249 19.681 97.5249 10.5303 97.5205 1.38405ZM105.133 7.12263C105.133 9.78584 105.133 12.449 105.133 15.1124C106.113 15.1078 107.092 15.099 108.076 15.0858C109.17 14.7357 110.456 14.5319 111.173 13.5214C112.454 11.9971 112.272 9.43135 110.651 8.21718C109.108 6.96309 106.995 7.10933 105.133 7.12263Z" fill="white"/>
<path d="M122.784 1.37521C129.209 1.36642 135.639 1.37088 142.069 1.37088C142.069 3.44028 142.069 5.50534 142.069 7.57474C138.178 7.57474 134.287 7.57474 130.397 7.57474C130.388 9.34726 130.388 11.1198 130.401 12.8923C133.751 12.8923 137.101 12.8835 140.451 12.8968C140.451 14.8111 140.447 16.7298 140.451 18.6487C137.097 18.6574 133.747 18.6487 130.392 18.6531C130.388 19.9825 130.388 21.3118 130.397 22.6413C134.398 22.6413 138.4 22.6369 142.406 22.6457C142.397 24.7107 142.397 26.7757 142.406 28.8407C135.865 28.8451 129.324 28.8496 122.784 28.8407C122.784 19.6856 122.784 10.5304 122.784 1.37521Z" fill="white"/>
<path d="M146.708 1.37091C153.138 1.37091 159.573 1.37531 166.002 1.36646C165.985 3.43591 165.985 5.50531 166.002 7.57916C162.107 7.57031 158.217 7.57916 154.321 7.57031C154.321 9.34283 154.313 11.1199 154.33 12.8969C157.68 12.8879 161.03 12.8835 164.381 12.8969C164.376 14.8156 164.381 16.7299 164.385 18.6487C161.03 18.6575 157.676 18.6487 154.321 18.6531C154.317 19.9825 154.317 21.3163 154.321 22.6458C158.323 22.6368 162.32 22.6413 166.322 22.6458C166.322 24.7107 166.322 26.7758 166.322 28.8407C159.781 28.854 153.245 28.8407 146.708 28.8452C146.713 19.6856 146.713 10.5305 146.708 1.37091Z" fill="white"/>
<path d="M170.642 1.37531C174.076 1.36206 177.511 1.37531 180.949 1.36646C185.221 1.40192 189.639 2.93073 192.586 6.11682C197.062 10.8629 197.141 19.0165 192.794 23.8688C189.856 27.21 185.323 28.8141 180.949 28.8496C177.515 28.8407 174.076 28.8496 170.642 28.8407C170.642 19.6856 170.642 10.5305 170.642 1.37531ZM178.251 7.57031C178.251 12.5955 178.251 17.6206 178.251 22.6413C180.719 22.7609 183.409 22.5571 185.443 20.9884C189.214 18.3208 189.249 11.913 185.483 9.22327C183.44 7.63684 180.728 7.47729 178.251 7.57031Z" fill="white"/>
<path d="M95.3052 33.7195C101.735 33.7195 108.165 33.7151 114.595 33.7195C114.599 35.7889 114.59 37.854 114.595 39.9234C110.7 39.9234 106.809 39.9234 102.918 39.9234C102.914 41.696 102.914 43.464 102.923 45.241C106.277 45.241 109.627 45.241 112.982 45.2454C112.973 47.1597 112.977 49.0784 112.977 50.9972C109.623 51.0149 106.273 50.9929 102.923 51.0018C102.914 52.3311 102.914 53.6561 102.927 54.9898C106.924 54.9855 110.926 54.9898 114.923 54.9855C114.927 57.0549 114.918 59.1243 114.923 61.1938C108.382 61.1938 101.846 61.1938 95.3096 61.1938C95.3052 52.0342 95.3185 42.8746 95.3052 33.7195Z" fill="white"/>
<path d="M117.422 33.7417C120.045 33.7018 122.673 33.7151 125.305 33.7284C127.286 38.6605 129.307 43.5793 131.349 48.4891C133.317 43.5571 135.386 38.6693 137.336 33.7284C139.982 33.7018 142.623 33.7328 145.268 33.7151C140.81 43.0608 136.348 52.4064 131.855 61.7344C131.598 62.4744 130.707 62.0002 130.645 61.3976C126.236 52.1804 121.809 42.9677 117.422 33.7417Z" fill="white"/>
<path d="M147.16 33.7195C153.586 33.7195 160.011 33.7151 166.437 33.7195C166.441 35.7889 166.437 37.854 166.441 39.9234C162.55 39.9234 158.655 39.9234 154.764 39.9234C154.764 41.696 154.764 43.4684 154.769 45.2454C158.119 45.2321 161.469 45.2454 164.824 45.241C164.824 47.1597 164.824 49.0784 164.828 50.9972C161.474 51.0062 158.119 50.9972 154.76 51.0018C154.769 52.3311 154.764 53.6649 154.764 54.9987C158.766 54.981 162.767 54.9898 166.769 54.9898C166.769 57.0549 166.769 59.1243 166.769 61.1938C160.228 61.1938 153.692 61.1938 147.156 61.1938C147.16 52.0342 147.147 42.8746 147.16 33.7195Z" fill="white"/>
<path d="M171.085 33.724C174.665 33.7063 178.25 33.724 181.831 33.7151C185.185 33.7106 188.708 34.8185 191.008 37.3621C192.843 39.3518 193.618 42.1878 193.228 44.851C192.865 47.7579 190.902 50.3015 188.349 51.6575C190.175 54.9102 192.284 57.9944 194.203 61.1937C191.394 61.1894 188.584 61.1982 185.775 61.1894C184.25 58.5526 182.668 55.947 181.237 53.2661C180.386 53.2306 179.54 53.213 178.698 53.2041C178.689 55.8673 178.693 58.5306 178.698 61.1937C176.159 61.1937 173.62 61.1937 171.085 61.1937C171.085 52.0343 171.085 42.879 171.085 33.724ZM178.698 39.4802C178.693 42.1391 178.693 44.7977 178.698 47.4611C179.673 47.4567 180.648 47.4522 181.631 47.439C182.62 47.1022 183.759 46.9515 184.499 46.1361C186.019 44.6738 185.943 41.8687 184.228 40.5881C182.699 39.2897 180.568 39.4669 178.698 39.4802Z" fill="white"/>
</svg>
