<svg xmlns="http://www.w3.org/2000/svg" width="26" height="29" viewBox="0 0 26 29"><g><g><path d="M21.43 20.203c-1.06 0-2.049.352-2.755 1.055L8.574 15.42c.07-.352.141-.633.141-.985s-.07-.634-.141-.985l9.96-5.769a4.251 4.251 0 0 0 2.896 1.126c2.33 0 4.238-1.9 4.238-4.222 0-2.32-1.907-4.22-4.238-4.22-2.331 0-4.238 1.9-4.238 4.22 0 .352.07.634.141.986l-9.96 5.768a4.252 4.252 0 0 0-2.896-1.125c-2.33 0-4.167 1.9-4.167 4.22 0 2.322 1.907 4.222 4.238 4.222 1.13 0 2.119-.422 2.896-1.125l10.03 5.839c-.07.28-.141.562-.141.914 0 2.252 1.836 4.08 4.097 4.08 2.26 0 4.096-1.828 4.096-4.08 0-2.251-1.836-4.08-4.096-4.08z"/></g></g></svg>