<svg xmlns="http://www.w3.org/2000/svg" width="30" height="30" viewBox="0 0 30 30"><g><g><path d="M7.98 13.264c.063 0 .215.041.464.125.293.107.473.157.568.157.043 0 .068-.01.077-.03.022-.052-.056-.17-.246-.37-.78-.798-1.03-2-.65-3.136l.178-.508.693.688c1.417 1.39 3.097 2.216 4.994 2.458l.524.063-.031-.519c-.095-1.345.727-2.571 2.046-3.05.256-.09.62-.142.997-.142.31 0 .608.035.84.1.202.06.593.265.89.465l.515.35.566-.18c.3-.09.727-.25.924-.36.136-.073.27-.126.318-.126.012 0 .018.003.018.01 0 .177-.387.792-.714 1.133-.19.205-.265.32-.242.372.01.022.037.033.084.033.112 0 .339-.063.735-.204.259-.087.396-.133.456-.133.017 0 .028.004.034.013.012.02-.01.067-.049.14-.065.11-.393.482-.734.817-.585.58-.62.643-.62 1.133 0 .738-.353 2.312-.713 3.178-.663 1.615-2.067 3.267-3.494 4.11-1.256.74-2.813 1.149-4.383 1.149a8.483 8.483 0 0 1-2.5-.366c-.738-.23-2.025-.823-2.025-.932 0-.034.418-.075.86-.084a5.949 5.949 0 0 0 2.812-.784l.567-.339-.65-.223c-.928-.319-1.753-1.05-1.962-1.737-.023-.081-.036-.137-.01-.172.042-.056.178-.061.555-.061l.608-.01-.514-.244c-.616-.311-1.167-.83-1.437-1.356-.196-.374-.454-1.342-.378-1.42.004-.005.014-.008.03-.008zM20.84 28.821a14.95 14.95 0 0 0 4.768-3.214A14.95 14.95 0 0 0 30 15a14.95 14.95 0 0 0-4.393-10.607A14.95 14.95 0 0 0 15 0 14.95 14.95 0 0 0 4.393 4.393 14.95 14.95 0 0 0 0 15a14.95 14.95 0 0 0 4.393 10.606A14.95 14.95 0 0 0 15 30c2.025 0 3.99-.397 5.839-1.179z"/></g></g></svg>