<svg width="19" height="20" viewBox="0 0 19 20" fill="none" xmlns="http://www.w3.org/2000/svg">
<path d="M18.7306 16.84L18.2106 14.4C17.9306 13.12 17.1706 12 16.0106 11.28L12.9306 9.36C13.4106 8.76 13.6906 8 13.7706 7.16L14.0106 4.88C14.3706 2.28 12.2906 0 9.65056 0H9.17056C6.53056 0 4.45056 2.28 4.73056 4.92L4.97056 7.2C5.05056 8 5.37056 8.76 5.81056 9.4L2.73056 11.32C1.65056 12 0.85056 13.12 0.57056 14.4L0.0505599 16.84C-0.26944 18.48 0.97056 20 2.61056 20H16.1706C17.8506 20 19.0906 18.48 18.7306 16.84ZM7.33056 2.8C7.81056 2.28 8.45056 2 9.17056 2H9.65056C10.3706 2 11.0106 2.28 11.4906 2.8C11.9706 3.32 12.1706 4 12.0906 4.68L11.8506 6.96C11.7306 8.2 10.6506 9.16 9.41056 9.16C8.17056 9.16 7.09056 8.2 6.97056 6.96L6.73056 4.68C6.65056 4 6.85056 3.32 7.33056 2.8ZM16.6506 17.76C16.5706 17.84 16.4506 18 16.1706 18H2.61056C2.37056 18 2.21056 17.84 2.13056 17.76C2.05056 17.68 1.97056 17.48 2.01056 17.24L2.53056 14.8C2.69056 14.04 3.17056 13.4 3.81056 13L7.45056 10.72C8.05056 11 8.69056 11.16 9.37056 11.16C10.0506 11.16 10.7306 11 11.2906 10.72L14.9306 13C15.5706 13.4 16.0506 14.08 16.2106 14.8L16.7306 17.24C16.8506 17.52 16.7306 17.68 16.6506 17.76Z" fill="#111111"/>
<path d="M13.2109 16.3999H11.2109C10.6509 16.3999 10.2109 15.9599 10.2109 15.3999C10.2109 14.8399 10.6509 14.3999 11.2109 14.3999H13.2109C13.7709 14.3999 14.2109 14.8399 14.2109 15.3999C14.2109 15.9599 13.7709 16.3999 13.2109 16.3999Z" fill="#43290A"/>
</svg>
